<svg version="1" xmlns="http://www.w3.org/2000/svg" width="1600" height="1600" viewBox="0 0 1200.000000 1200.000000"><path d="M595.7 74.6c-.1.1-7.2.5-15.7.8-18.6.7-33.5 1.8-42.8 3.2-1.9.3-5.5.7-8 .9-2.6.2-4.7.4-4.7.5 0 .2-2.8.7-7.2 1.3-7.1 1.1-21.5 3.7-22.1 4.1-.7.4-7.8 1.8-9.9 1.9-.7 0-1.3.4-1.3.9s-.4.7-.8.4c-1.8-1.1-47.2 11.5-58.7 16.4-1.1.4-4.9 1.8-8.5 3-9.5 3.3-35.4 14.3-35.8 15.2-.2.4-1 .8-1.7.8-1.6 0-38.1 18.5-39.5 20.1-.3.3-2.4 1.4-4.7 2.6-2.3 1.1-4 2.3-3.6 2.7.3.3 0 .6-.8.6s-3.8 1.6-6.6 3.5c-2.9 1.9-5.7 3.5-6.3 3.5-.5 0-1 .4-1 1 0 .5-.4 1-.9 1-.9 0-8.5 5-18.2 11.9-2 1.4-5.8 4.1-8.5 6-2.7 1.9-5.1 3.7-5.4 4.1-.3.3-2.3 1.9-4.5 3.5-2.2 1.7-4.2 3.2-4.5 3.5-.3.3-2.1 1.7-4 3.2-1.9 1.4-4.5 3.5-5.7 4.7-1.2 1.2-2.4 2.1-2.7 2.1-.3 0-1.8 1.2-3.4 2.7-1.6 1.6-6.4 5.9-10.7 9.8-12.2 10.9-27.5 26.2-27.5 27.4 0 .6-.5 1.1-1 1.1-1.1 0-2.3 1.2-10 10.1-2.5 2.8-6 6.7-7.7 8.6-1.8 1.9-3.3 3.7-3.3 3.9 0 .4-4.2 5.4-7.5 8.9-1.1 1.2-2.6 3.3-3.4 4.8-.8 1.5-1.8 2.7-2.2 2.7-.4 0-1.8 1.7-3 3.7-1.3 2.1-2.6 4-3 4.3-1.1.8-13.8 19-19.3 27.7-15.6 24.4-31.5 53.7-40 73.3-1.5 3.6-3.7 8.7-4.9 11.4-1.2 2.7-2 5-1.8 5 .2.1-.2 1.2-.9 2.6-.8 1.4-1.5 2.9-1.7 3.5-.1.5-2.3 6.6-4.9 13.5-5.1 13.8-14.4 44.3-14.4 47.5 0 1.2-.5 2.6-1.2 3.3-.7.7-.9 1.2-.6 1.2.4 0 .2 1.5-.3 3.2-.5 1.8-1.2 4.6-1.5 6.3-.3 1.6-1 5-1.5 7.5-.6 2.5-1.3 5.6-1.5 7-.2 1.4-.9 4.7-1.4 7.5-.5 2.7-1.2 6.8-1.5 9-.3 2.2-.8 5.1-1.1 6.5-.2 1.4-.6 3.5-.8 4.7-.3 1.2-.8 5.7-1.1 10-.4 4.3-.9 8.7-1.1 9.8-.2 1.1-.7 5.1-1 9-.2 3.8-.7 9.9-1 13.5-.7 9.3-.7 53.1 0 62 .3 4.1.9 10.2 1.2 13.6.3 3.3.7 8 .9 10.5.4 5.1 1.3 12.3 2 15.9.3 1.4.7 4.3 1 6.5 1.1 8.7 1.5 11.7 1.9 12.4.2.3.7 3 1.1 6 .4 3 1.1 6.4 1.5 7.7.5 1.2.7 2.4.4 2.6-.2.3.2 2.3 1 4.6.8 2.2 1.2 4.2 1 4.5-.3.2 0 1.6.6 3.1.5 1.5 1.2 4.1 1.5 5.9 1.5 8.5 18.2 60.7 22.5 70.2 1.5 3.3 3.1 7.1 3.5 8.5 1.5 5.1 17.1 37.6 23.2 48.3 3.5 6.1 8.6 15.3 10.7 19.2.6 1.1 1.3 2.2 1.6 2.5 1.3 1.3 6 9.1 6 10 0 .5.5 1 1 1 .6 0 1 .7 1 1.5s.5 1.5 1 1.5c.6 0 1 .7 1 1.5s.5 1.5 1 1.5c.6 0 1 .5 1 1 0 1 3.7 6.8 5.1 8 .3.3 1.4 2 2.4 3.7 1.1 1.8 2.3 3.3 2.7 3.3.4 0 .8.6.8 1.4 0 .8.3 1.6.8 1.8.4.1 3.4 3.9 6.7 8.3 3.3 4.4 6.4 8.5 7 9.1.5.6 2.4 2.9 4 5 1.7 2.1 4 5 5.2 6.4 1.3 1.4 3.2 3.6 4.4 5 16.5 19.7 45.3 47.6 68.2 66 1 .8 2.7 2.2 3.8 3.1 1.1.9 3.5 2.7 5.4 4 1.9 1.3 3.5 2.7 3.5 3.1 0 .5.5.8 1 .8.6 0 2 .8 3.1 1.9 1.1 1 4.5 3.6 7.7 5.7 3.1 2.1 5.9 4.1 6.2 4.4.3.3 3 2.1 6 4s5.7 3.7 6 4c1 1 11.2 7 12 7 .5 0 1 .4 1.2.8.5 1.4 21.4 12.9 39.8 22.1 18.1 9 33.3 15.7 48 21.1 4.7 1.8 9.2 3.4 10 3.7.8.4 1.8.7 2.3.8.4.2.9.4 1.2.5.3.1.8.3 1.3.5.4.1 1.4.4 2.2.8 2.5 1 26.5 8.2 30.7 9.2 1 .3 6.3 1.6 11.8 3 5.5 1.5 11.1 2.8 12.5 3.1 1.4.3 3.2.7 4 .9.8.2 3.1.7 5 1 1.9.3 4.2.8 5 1 .8.2 3.1.7 5 1 1.9.3 6 1 9 1.5s7.3 1.2 9.5 1.5c2.3.3 5.2.7 6.5 1 1.3.3 5.4.7 9 1.1 3.6.3 7.9.8 9.5 1 9.8 1.3 25.6 1.9 52.5 1.8 34.7 0 47.8-.8 75.3-4.9 1.5-.2 4.7-.7 7-1 5.6-.8 38.9-7.5 39.7-8 .4-.2 2.2-.7 4.1-1 5-.9 12.2-3 34.2-10.1 26.2-8.5 48.4-19.4 66.8-32.9 3-2.1 5.6-4.2 5.9-4.5.3-.3 2.3-1.8 4.5-3.4 4-3 27.4-26.2 30.9-30.7 19.3-25 30-44.2 39.5-71.2 1.7-4.8 3.3-9.8 3.6-11 .2-1.2.9-4.2 1.6-6.7 2-8.3 2.1-8.9 3.9-19 3.6-19.6 3.5-52.1-.2-72.5-.6-3.3-1.2-6.9-1.4-8-1.1-7.9-10.5-38-13.9-44.5-.7-1.4-3.1-6.3-5.4-11-4.4-9.1-8.2-16.2-9.2-17-.3-.3-1.4-2.1-2.5-4-1-1.9-2.1-3.7-2.4-4-.3-.3-3.2-4.2-6.4-8.7-3.3-4.6-6.3-8.3-6.8-8.3-.4 0-.8-.4-.8-1 0-1.5-14.7-17.1-23.1-24.5-9.4-8.3-23.9-19.2-30.5-22.9-1.6-.9-4.2-2.5-5.9-3.5-5.7-3.6-20.6-11.1-22.1-11.1-.8 0-1.4-.4-1.4-.9s-1-1.1-2.2-1.4c-1.8-.4-24.5-8.3-25.5-8.8-.4-.2-.3-.2-9.8-2.4-4.4-1.1-8.2-2-8.5-2-.3-.1-2.7-.5-5.5-1-2.7-.4-5.9-.9-7-1.2-8.9-1.7-42.3-2.4-54.5-1-8.8.9-13 1.5-16 2.2-1.4.3-3.8.8-5.5 1.1-5.1.9-18.7 4.5-24.6 6.4-13.8 4.7-29.6 5.8-42.6 3.2-9.2-1.9-28.3-11-28.3-13.4 0-.4-.7-.8-1.5-.8s-1.5-.3-1.5-.8c0-.4-1.4-1.6-3-2.7s-3-2.5-3-3c0-.6-.8-1.5-1.8-2.1-3.3-2.1-11.7-15.8-15.2-24.9-5.2-13.3-5.7-32.3-1.3-46.6.9-3 1.7-5.6 1.8-5.9.3-1.9 5.5-11.4 8.8-16 4-5.6 15.1-17 16.5-17 .5 0 1.7-.8 2.8-1.8 1.8-1.6 13.1-7.5 13.6-7.1.2.2 1.4-.4 2.8-1.1 2.7-1.5 2.9-1.6 7.5-2.5 1.7-.3 4.6-1 6.5-1.4 3.9-.8 17.4-.7 23.5.2 5.4.8 15.7 4.3 20.1 6.7 1.9 1.1 3.9 2 4.4 2 .5 0 2.9 1.3 5.3 3 2.5 1.6 4.7 3 5 3 .3 0 1.8.5 3.4 1.2 1.5.6 3.1 1.2 3.6 1.3.4.2.8.3 1 .5.3.2 3.8 1 6.4 1.5 1.2.2 2.7.6 3.3 1 .6.4 5.5.8 10.9 1 9.6.3 21.3-1.2 27.6-3.6 6.8-2.6 17.3-8.2 21.3-11.4 4.3-3.4 14.1-14 16.2-17.6 1.4-2.3 3.5-5.8 4.8-7.7 1.3-1.9 2.4-4.3 2.5-5.4.1-1 .4-1.8.8-1.8.5 0 2-5.2 1.8-6.3 0-.1.4-1.4.9-2.8 2.7-6.9 3.4-21.1 1.5-30.4-2.7-13.6-5.6-20.8-12.4-30.8-5.3-7.7-17.6-19.7-20.2-19.7-1.4 0-14.7-10.9-17.6-14.3-1.4-1.6-2.9-3.4-3.5-4.1-3.2-3.3-11.5-18.1-12.1-21.6-.1-.3-.6-2.3-1.3-4.5-.6-2.2-1.4-5.4-1.8-7-.9-4.6-1.2-20.6-.3-24.5.4-1.9 1-4.9 1.4-6.7.3-1.8.9-4.2 1.4-5.5.5-1.3.9-2.6 1-3.1 0-.4.8-2.2 1.8-4 .9-1.7 1.7-3.4 1.8-3.7.1-1.2 5.6-9.7 8-12.5 7.6-8.6 12.8-13.5 14.5-13.5.5 0 1-.4 1-.9 0-2.1 22.2-11.9 27-11.9.8 0 2.9-.4 4.5-1 2.7-.8 19.1-.8 24 .1 6.2 1.1 10.1 2 11 2.7.6.4 2.5 1.1 4.3 1.5 1.7.3 3.2 1 3.2 1.5 0 .7 2.9 1.8 4.7 1.8.3 0 .9.4 1.2.9 1.6 2.2 14.3 8.2 22.2 10.5 11.6 3.3 31 2.9 42.9-.9.8-.2 1.6-.4 1.7-.4.2 0 2.8-1.1 5.9-2.5 7.6-3.3 16.6-9.6 22.8-15.8 8.1-8 17.1-23.6 19.2-32.9.1-.4.2-.8.4-1 1.7-2.2 3.1-21.6 1.9-28.2-.4-2.2-.9-5.4-1.2-7-1.3-8.2-8.9-24.3-14.4-30.6-7-8.1-14.1-14.4-17.5-15.5-1-.4-1.8-1-1.8-1.5s-.5-.9-1.1-.9c-.6 0-3.7-1.7-6.8-3.8-3.1-2.1-6.3-4.1-7.1-4.5-.8-.4-5.1-2.7-9.5-5.2s-9.1-5-10.5-5.6c-1.4-.6-3.6-1.8-5-2.5-2.5-1.5-13.1-6.6-14-6.8-.3-.1-1.4-.7-2.5-1.3-1.1-.6-8.1-3.6-15.5-6.7s-14.3-6.1-15.2-6.6c-1-.6-2.7-1-3.8-1-1.1 0-2-.5-2-1 0-.6-1-1-2.3-1-1.3 0-2.8-.5-3.5-1.2-.7-.7-1.2-.9-1.2-.5 0 .3-2-.2-4.5-1.3s-4.6-1.9-4.8-1.9c-.1 0-.9-.2-1.7-.5-5.1-1.6-9.6-3-10.5-3.2-.5-.1-3-.9-5.5-1.7-2.5-.9-5.7-1.8-7.2-2.1-1.5-.2-3.1-.7-3.6-1-.5-.3-1.9-.7-3.3-1-2-.4-10-2.4-17.4-4.3-3.7-.9-15.8-3.4-19-3.8-1.1-.2-2-.4-2-.5 0-.2-.9-.4-2-.5-4.4-.6-9.1-1.4-11.5-1.9-1.4-.3-4.4-.8-6.7-1.1-5.9-.7-11.2-1.4-15.3-2.1-1.9-.3-6-.8-9-1-3-.2-7.5-.6-10-.9-2.5-.2-12.1-.7-21.5-1-9.3-.3-18.9-.7-21.3-.9-2.3-.1-4.3-.1-4.5 0z"/></svg>